<?xml version="1.0" encoding="UTF-8" standalone="no"?>
<!DOCTYPE svg PUBLIC "-//W3C//DTD SVG 1.1//EN"
 "http://www.w3.org/Graphics/SVG/1.1/DTD/svg11.dtd">
<!-- Generated by graphviz version 2.26.3 (20100126.1600)
 -->
<!-- Title: ant Pages: 1 -->
<svg width="372pt" height="342pt"
 viewBox="0.00 0.00 372.00 342.00" xmlns="http://www.w3.org/2000/svg" xmlns:xlink="http://www.w3.org/1999/xlink">
<g id="graph1" class="graph" transform="scale(1 1) rotate(0) translate(4 338)">
<title>ant</title>
<polygon fill="white" stroke="white" points="-4,5 -4,-338 369,-338 369,5 -4,5"/>
<!-- prepare -->
<g id="node1" class="node"><title>prepare</title>
<ellipse fill="none" stroke="black" cx="75" cy="-315" rx="48.9975" ry="18.3848"/>
<text text-anchor="middle" x="75" y="-311.4" font-family="Times Roman,serif" font-size="14.00">prepare</text>
</g>
<!-- compile&#45;main -->
<g id="node3" class="node"><title>compile&#45;main</title>
<ellipse fill="none" stroke="black" cx="75" cy="-241" rx="75.1594" ry="18.3848"/>
<text text-anchor="middle" x="75" y="-237.4" font-family="Times Roman,serif" font-size="14.00">compile&#45;main</text>
</g>
<!-- prepare&#45;&gt;compile&#45;main -->
<g id="edge2" class="edge"><title>prepare&#45;&gt;compile&#45;main</title>
<path fill="none" stroke="black" d="M75,-296.327C75,-288.264 75,-278.648 75,-269.711"/>
<polygon fill="black" stroke="black" points="78.5001,-269.667 75,-259.667 71.5001,-269.667 78.5001,-269.667"/>
</g>
<!-- compile_main -->
<g id="node4" class="node"><title>compile_main</title>
<ellipse fill="none" stroke="black" cx="241" cy="-315" rx="77.7817" ry="18.3848"/>
<text text-anchor="middle" x="241" y="-311.4" font-family="Times Roman,serif" font-size="14.00">compile_main</text>
</g>
<!-- compile_test -->
<g id="node6" class="node"><title>compile_test</title>
<ellipse fill="none" stroke="black" cx="241" cy="-241" rx="72.832" ry="18.3848"/>
<text text-anchor="middle" x="241" y="-237.4" font-family="Times Roman,serif" font-size="14.00">compile_test</text>
</g>
<!-- compile_main&#45;&gt;compile_test -->
<g id="edge4" class="edge"><title>compile_main&#45;&gt;compile_test</title>
<path fill="none" stroke="black" d="M241,-296.327C241,-288.264 241,-278.648 241,-269.711"/>
<polygon fill="black" stroke="black" points="244.5,-269.667 241,-259.667 237.5,-269.667 244.5,-269.667"/>
</g>
<!-- compile -->
<g id="node7" class="node"><title>compile</title>
<ellipse fill="none" stroke="black" cx="241" cy="-167" rx="48.0833" ry="18.3848"/>
<text text-anchor="middle" x="241" y="-163.4" font-family="Times Roman,serif" font-size="14.00">compile</text>
</g>
<!-- compile_test&#45;&gt;compile -->
<g id="edge12" class="edge"><title>compile_test&#45;&gt;compile</title>
<path fill="none" stroke="black" d="M241,-222.327C241,-214.264 241,-204.648 241,-195.711"/>
<polygon fill="black" stroke="black" points="244.5,-195.667 241,-185.667 237.5,-195.667 244.5,-195.667"/>
</g>
<!-- test -->
<g id="node9" class="node"><title>test</title>
<ellipse fill="none" stroke="black" cx="241" cy="-93" rx="31.1127" ry="18.3848"/>
<text text-anchor="middle" x="241" y="-89.4" font-family="Times Roman,serif" font-size="14.00">test</text>
</g>
<!-- compile&#45;&gt;test -->
<g id="edge6" class="edge"><title>compile&#45;&gt;test</title>
<path fill="none" stroke="black" d="M241,-148.327C241,-140.264 241,-130.648 241,-121.711"/>
<polygon fill="black" stroke="black" points="244.5,-121.667 241,-111.667 237.5,-121.667 244.5,-121.667"/>
</g>
<!-- all -->
<g id="node12" class="node"><title>all</title>
<ellipse fill="none" stroke="black" cx="284" cy="-19" rx="27" ry="18.3848"/>
<text text-anchor="middle" x="284" y="-15.4" font-family="Times Roman,serif" font-size="14.00">all</text>
</g>
<!-- test&#45;&gt;all -->
<g id="edge10" class="edge"><title>test&#45;&gt;all</title>
<path fill="none" stroke="black" d="M251.19,-75.463C256.438,-66.4316 262.943,-55.2373 268.773,-45.2038"/>
<polygon fill="black" stroke="black" points="271.885,-46.8158 273.883,-36.4111 265.832,-43.2989 271.885,-46.8158"/>
</g>
<!-- clean -->
<g id="node10" class="node"><title>clean</title>
<ellipse fill="none" stroke="black" cx="327" cy="-93" rx="36.977" ry="18.3848"/>
<text text-anchor="middle" x="327" y="-89.4" font-family="Times Roman,serif" font-size="14.00">clean</text>
</g>
<!-- clean&#45;&gt;all -->
<g id="edge8" class="edge"><title>clean&#45;&gt;all</title>
<path fill="none" stroke="black" d="M316.591,-75.0867C311.339,-66.0479 304.87,-54.9164 299.084,-44.9593"/>
<polygon fill="black" stroke="black" points="302.068,-43.1266 294.017,-36.2388 296.015,-46.6436 302.068,-43.1266"/>
</g>
</g>
</svg>
